Most of the videos were ripped from "The Chemical Brothers Singles 93-03 DVD"

The Chemical Brothers - Believe [2005].avi
The Chemical Brothers - Galvanize [2004].avi
The Chemical Brothers - Promo Only - Do It Again [2007].avi
The Chemical Brothers - Promo Only - Get Yourself High [2003].avi
The Chemical Brothers - Promo Only - Midnight Madness [2008].avi
The Chemical Brothers - Singles 93-03 DVD - Block Rockin' Beats [1997].avi
The Chemical Brothers - Singles 93-03 DVD - Chemical Beats [Live At Glastonbury 1997].avi
The Chemical Brothers - Singles 93-03 DVD - Elektrobank [1997].avi
The Chemical Brothers - Singles 93-03 DVD - Hey Boy Hey Girl [1999].avi
The Chemical Brothers - Singles 93-03 DVD - Hey Boy Hey Girl [Live At Red Rocks 1999].avi
The Chemical Brothers - Singles 93-03 DVD - Hoops & Setting Sun [Live At Fuji Festival 2002].avi
The Chemical Brothers - Singles 93-03 DVD - Let Forever Be [1999].avi
The Chemical Brothers - Singles 93-03 DVD - Life Is Sweet [1995].avi
The Chemical Brothers - Singles 93-03 DVD - Out Of Control [1999].avi
The Chemical Brothers - Singles 93-03 DVD - Setting Sun [1996].avi
The Chemical Brothers - Singles 93-03 DVD - Star Guitar [2002].avi
The Chemical Brothers - Singles 93-03 DVD - Temptation & Star Guitar [Live At Fuji Festival 2002].avi
The Chemical Brothers - Singles 93-03 DVD - The Golden Path [2003].avi
The Chemical Brothers - Singles 93-03 DVD - The Private Psychedelic Reel [Live At Glastonbury 2000].avi
The Chemical Brothers - Singles 93-03 DVD - The Test [2002].avi

Format info for "Believe"

Format:				AVI
Format/Info:			Audio Video Interleave
File size:			47.8 MiB
Duration:			4m 21s
Overall bit rate:		1533 Kbps
Writing application:		SUPER(C).v2009.bld.36

Video

Format:				MPEG-4 Visual
Format profile:			Simple@L1
Format settings, BVOP:		No
Format settings, QPel:		No
Format settings, GMC:		No warppoints
Format settings, Matrix:	Default (H.263)
Codec ID:			DX50
Codec ID/Hint:			DivX 5
Duration:			4m 21s
Bit rate:			1296 Kbps
Width:				800 pixels
Height:				450 pixels
Display aspect ratio:		16:9
Frame rate:			25.000 fps
Resolution:			24 bits
Colorimetry:			4:2:0
Scan type:			Progressive
Bits/(Pixel*Frame):		0.144
Stream size:			40.4 MiB (85%)

Audio 

Format:				MPEG Audio
Format version:			Version 1
Format profile:			Layer 3
Codec ID:			55
Codec ID/Hint:			MP3
Duration:			4m 21s
Bit rate mode:			Constant
Bit rate:			224 Kbps
Channel(s):			2 channels
Sampling rate:			48.0 KHz
Resolution:			16 bits
Stream size:			6.99 MiB (15%)
Alignment:			Aligned on interleaves
Interleave, duration:		24 ms (0.60 video frame)


Format info for "Galvanize"

Format:				AVI
Format/Info:			Audio Video Interleave
File size:			69.5 MiB
Duration:			3m 44s
Overall bit rate:		2596 Kbps
Writing application:		SUPER(C).v2009.bld.36

Video

Format:				MPEG-4 Visual
Format profile:			Simple@L1
Format settings, BVOP:		No
Format settings, QPel:		No
Format settings, GMC:		No warppoints
Format settings, Matrix:	Default (H.263)
Codec ID:			DX50
Codec ID/Hint:			DivX 5
Duration:			3m 44s
Bit rate:			2360 Kbps
Width:				800 pixels
Height:				450 pixels
Display aspect ratio:		16:9
Frame rate:			25.000 fps
Resolution:			24 bits
Colorimetry:			4:2:0
Scan type:			Progressive
Bits/(Pixel*Frame):		0.262
Stream size:			63.1 MiB (91%)

Audio 

Format:				MPEG Audio
Format version:			Version 1
Format profile:			Layer 3
Codec ID:			55
Codec ID/Hint:			MP3
Duration:			3m 44s
Bit rate mode:			Constant
Bit rate:			224 Kbps
Channel(s):			2 channels
Sampling rate:			48.0 KHz
Resolution:			16 bits
Stream size:			5.99 MiB (9%)
Alignment:			Aligned on interleaves
Interleave, duration:		24 ms (0.60 video frame)


Format info for "Do It Again"

Format:				AVI
Format/Info:			Audio Video Interleave
File size:			53.2 MiB
Duration:			4m 22s
Overall bit rate:		1702 Kbps
Writing application:		SUPER(C).v2009.bld.36

Video

Format:				MPEG-4 Visual
Format profile:			Simple@L1
Format settings, BVOP:		No
Format settings, QPel:		No
Format settings, GMC:		No warppoints
Format settings, Matrix:	Default (H.263)
Codec ID:			DX50
Codec ID/Hint:			DivX 5
Duration:			4m 22s
Bit rate:			1464 Kbps
Width:				800 pixels
Height:				450 pixels
Display aspect ratio:		16:9
Frame rate:			29.970 fps
Resolution:			24 bits
Colorimetry:			4:2:0
Scan type:			Progressive
Bits/(Pixel*Frame):		0.136
Stream size:			45.7 MiB (86%)

Audio 

Format:				MPEG Audio
Format version:			Version 1
Format profile:			Layer 3
Codec ID:			55
Codec ID/Hint:			MP3
Duration:			4m 22s
Bit rate mode:			Constant
Bit rate:			224 Kbps
Channel(s):			2 channels
Sampling rate:			48.0 KHz
Resolution:			16 bits
Stream size:			7.00 MiB (13%)
Alignment:			Aligned on interleaves
Interleave, duration:		24 ms (0.72 video frame)


Format info for "Get Yourself High"

Format:				AVI
Format/Info:			Audio Video Interleave
File size:			41.2 MiB
Duration:			3m 32s
Overall bit rate:		1627 Kbps
Writing application:		SUPER(C).v2009.bld.36

Video

Format:				MPEG-4 Visual
Format profile:			Simple@L1
Format settings, BVOP:		No
Format settings, QPel:		No
Format settings, GMC:		No warppoints
Format settings, Matrix:	Default (H.263)
Codec ID:			DX50
Codec ID/Hint:			DivX 5
Duration:			3m 32s
Bit rate:			1390 Kbps
Width:				768 pixels
Height:				576 pixels
Display aspect ratio:		4:3
Frame rate:			25.000 fps
Resolution:			24 bits
Colorimetry:			4:2:0
Scan type:			Progressive
Bits/(Pixel*Frame):		0.126
Stream size:			35.2 MiB (85%)

Audio 

Format:				MPEG Audio
Format version:			Version 1
Format profile:			Layer 3
Codec ID:			55
Codec ID/Hint:			MP3
Duration:			3m 32s
Bit rate mode:			Constant
Bit rate:			224 Kbps
Channel(s):			2 channels
Sampling rate:			48.0 KHz
Resolution:			16 bits
Stream size:			5.67 MiB (14%)
Alignment:			Aligned on interleaves
Interleave, duration:		24 ms (0.60 video frame)


Format info for "Midnight Madness"

Format:				AVI
Format/Info:			Audio Video Interleave
File size:			51.5 MiB
Duration:			4m 11s
Overall bit rate:		1716 Kbps
Writing application:		SUPER(C).v2009.bld.36

Video

Format:				MPEG-4 Visual
Format profile:			Simple@L1
Format settings, BVOP:		No
Format settings, QPel:		No
Format settings, GMC:		No warppoints
Format settings, Matrix:	Default (H.263)
Codec ID:			DX50
Codec ID/Hint:			DivX 5
Duration:			4m 11s
Bit rate:			1481 Kbps
Width:				800 pixels
Height:				450 pixels
Display aspect ratio:		16:9
Frame rate:			25.000 fps
Resolution:			24 bits
Colorimetry:			4:2:0
Scan type:			Progressive
Bits/(Pixel*Frame):		0.165
Stream size:			44.4 MiB (86%)

Audio 

Format:				MPEG Audio
Format version:			Version 1
Format profile:			Layer 3
Codec ID:			55
Codec ID/Hint:			MP3
Duration:			4m 11s
Bit rate mode:			Constant
Bit rate:			224 Kbps
Channel(s):			2 channels
Sampling rate:			44.1 KHz
Resolution:			16 bits
Stream size:			6.71 MiB (13%)
Alignment:			Aligned on interleaves
Interleave, duration:		26 ms (0.65 video frame)


Format info for the videos from "Singles 93-03 DVD"

Format:				AVI
Format/Info:			Audio Video Interleave
Writing application:		SUPER(C).v2009.bld.36

Video

Format:				MPEG-4 Visual
Format profile:			Simple@L1
Format settings, BVOP:		No
Format settings, QPel:		No
Format settings, GMC:		No warppoints
Format settings, Matrix:	Default (H.263)
Codec ID:			DX50
Codec ID/Hint:			DivX 5
Bit rate: 			2746 Kbps
Width:				800 pixels
Height:				450 pixels
Display aspect ratio:		16:9
Frame rate:			29.970 fps
Resolution:			24 bits
Colorimetry:			4:2:0
Scan type:			Progressive
Bits/(Pixel*Frame):		0.255

Audio

Format:				MPEG Audio
Format version:			Version 1
Format profile:			Layer 3
Codec ID:			55
Codec ID/Hint:			MP3
Bit rate mode:			Constant
Bit rate:			224 Kbps
Channel(s):			2 channels
Sampling rate:			48.0 KHz
Resolution:			16 bits
Alignment:			Aligned on interleaves


Multimedia Analysis by Mediainfo (http://mediainfo.sourceforge.net)
